PathFileType	4	(X/Y/Z)	D:\TRACE\v60_Jaco2_6-2-23\JustArmDRS_Motion3_3-platform.trc
DataRate	CameraRate	NumFrames	NumMarkers	Units	OrigDataRate	OrigDataStartFrame	OrigNumFrames
100.00	100.00	      30	5	mm	100.00	1751	      7000
Frame#	Time	Left_Front			Right_Front			Left_Aft			Right_Aft			Post			
		X1	Y1	Z1	X2	Y2	Z2	X3	Y3	Z3	X4	Y4	Z4	X5	Y5	Z5	

1751	17.500	-806.06488	11.09889	-650.79260	764.48633	9.09872	-628.29272	-737.33893	10.34188	483.08801	677.21082	7.86043	588.88733	-9.97573	1309.11340	-962.18060	
1752	17.510	-806.17334	11.24163	-650.79572	764.48621	9.12828	-628.26160	-737.38092	10.29957	483.10596	677.08478	7.76052	588.90564	-10.05449	1309.11938	-962.06134	
1753	17.520	-806.25067	11.20470	-650.76660	764.41614	9.16178	-628.26691	-737.40210	10.24659	483.11288	677.12622	7.79924	588.91980	-10.11635	1309.15955	-961.80548	
1754	17.530	-806.22363	11.19923	-650.73157	764.41467	9.20738	-628.27423	-737.46954	10.21621	483.10806	677.05884	7.76657	588.94330	-10.12727	1309.19482	-961.54669	
1755	17.540	-806.24280	11.23868	-650.76593	764.33136	9.24140	-628.27252	-737.51123	10.21299	483.11774	677.02991	7.75365	588.94000	-10.12550	1309.23962	-961.27301	
1756	17.550	-806.37518	11.05235	-650.64819	764.28162	9.22836	-628.26581	-737.57941	10.22704	483.16125	676.92151	7.70867	588.94421	-10.17850	1309.24768	-961.15399	
1757	17.560	-806.43976	11.05389	-650.67487	764.14764	9.21317	-628.30048	-737.65778	10.25713	483.12894	676.83789	7.65949	588.91394	-10.21173	1309.22192	-960.87207	
1758	17.570	-806.56482	11.00483	-650.64020	764.05139	9.16790	-628.26349	-737.78369	10.26916	483.15576	676.65906	7.64281	588.85132	-10.41419	1309.25269	-960.81250	
1759	17.580	-806.67627	10.97458	-650.67450	763.96448	9.15949	-628.25232	-737.88635	10.24508	483.12109	676.54443	7.64764	588.81415	-10.46757	1309.21094	-960.79614	
1760	17.590	-806.78021	10.93960	-650.73059	763.89734	9.13238	-628.25250	-737.97839	10.29530	483.12833	676.37646	7.68003	588.92358	-10.70975	1309.19519	-960.94543	
1761	17.600	-806.88477	10.90220	-650.82141	763.81439	9.05711	-628.26044	-738.00159	10.27738	483.10077	676.29321	7.66303	588.90222	-10.91144	1309.13806	-961.27734	
1762	17.610	-806.91931	10.84240	-650.88605	763.68097	8.99042	-628.28186	-738.05054	10.27813	483.10657	676.25165	7.74867	588.72614	-11.00866	1309.10059	-961.56329	
1763	17.620	-807.01105	10.88590	-650.93683	763.58270	8.93628	-628.26898	-738.16315	10.29762	483.11057	676.13971	7.79600	588.72180	-10.93840	1309.02539	-961.73871	
1764	17.630	-807.07263	10.83625	-651.08551	763.49127	8.81553	-628.24835	-738.29352	10.34414	483.10825	676.06952	7.86410	588.70142	-11.03169	1308.96973	-961.90009	
1765	17.640	-807.17487	10.86168	-651.15906	763.34863	8.72566	-628.31006	-738.44977	10.52648	483.02426	675.91040	7.94668	588.64697	-11.09181	1308.77173	-962.09479	
1766	17.650	-807.24799	10.82812	-651.18622	763.30212	8.62571	-628.35083	-738.66016	10.71553	483.00949	675.81714	8.11980	588.62128	-11.22467	1308.58313	-962.33630	
1767	17.660	-807.36737	10.76400	-651.26477	763.16919	8.51272	-628.36621	-738.86292	10.89186	482.92325	675.77991	8.26231	588.57892	-11.28346	1308.27917	-962.66315	
1768	17.670	-807.54309	10.67254	-651.30804	763.07471	8.32732	-628.33014	-739.01599	11.00514	482.90433	675.71936	8.34791	588.50391	-11.56051	1307.99231	-962.98303	
1769	17.680	-807.67920	10.44712	-651.38477	762.99573	8.11776	-628.31354	-739.10693	11.08214	482.83347	675.63538	8.41025	588.46594	-11.86010	1307.79431	-963.28271	
1770	17.690	-807.79156	10.22137	-651.50330	762.85883	7.91923	-628.37860	-739.22656	11.19683	482.87680	675.59576	8.50859	588.42438	-12.00866	1307.57336	-963.63013	
1771	17.700	-808.01331	9.94012	-651.58875	762.69025	7.74278	-628.47742	-739.26599	11.28887	482.87070	675.32703	8.64049	588.46912	-12.02155	1307.37512	-964.09174	
1772	17.710	-808.00140	10.00222	-651.74945	762.53741	7.58307	-628.53918	-739.32831	11.35419	482.78644	675.16583	8.78373	588.42944	-12.12366	1307.22375	-964.40607	
1773	17.720	-808.26727	9.55154	-651.69482	762.37762	7.45189	-628.58185	-739.42731	11.49844	482.66098	674.98462	8.85711	588.37592	-12.11071	1306.96802	-964.77045	
1774	17.730	-808.36328	9.33333	-651.56677	762.24512	7.30069	-628.66656	-739.64459	11.75279	482.54767	674.87872	9.04084	588.14398	-12.25568	1306.43286	-965.37433	
1775	17.740	-808.65747	8.86596	-651.48151	762.03546	7.08058	-628.74463	-739.75714	11.89032	482.45612	674.72455	9.17582	588.17987	-12.54065	1306.11145	-966.00647	
1776	17.750	-808.57141	8.70688	-651.48676	761.82745	6.78357	-628.81097	-739.95380	12.12165	482.39468	674.72656	9.36561	588.18451	-12.80785	1305.85132	-966.48071	
1777	17.760	-808.68347	8.46035	-651.68427	761.71173	6.60745	-628.86273	-740.01801	12.27545	482.38626	674.56702	9.62276	588.13190	-12.91215	1305.44958	-966.96545	
1778	17.770	-808.74500	8.25014	-651.80267	761.61023	6.38791	-628.88165	-740.13751	12.40831	482.35828	674.40027	9.83672	588.09955	-12.87654	1305.14575	-967.32855	
1779	17.780	-808.49139	7.69830	-651.51849	761.44281	6.01604	-628.98364	-740.27716	12.49982	482.36575	674.20862	10.11160	588.06232	-13.09260	1304.73022	-967.93127	
1780	17.790	-809.01147	7.34817	-651.83838	761.29718	5.68780	-629.04602	-740.42102	12.70315	482.26822	673.86285	10.56131	587.98590	-13.29992	1304.10522	-968.67059	
